<svg enable-background="new 0 0 58 50.999" height="512" viewBox="0 0 58 50.999" width="512" xmlns="http://www.w3.org/2000/svg"><path d="m53.326 27.485c2.888-2.914 4.674-6.935 4.674-11.377 0-8.896-7.164-16.108-16-16.108-4.405 0-8.386 1.798-11.276 4.7-.96.964-2.487.964-3.447 0-2.891-2.902-6.872-4.7-11.277-4.7-8.836 0-16 7.212-16 16.108 0 4.455 1.797 8.487 4.701 11.404l22.629 22.782c.934.94 2.455.94 3.389-.001l22.619-22.795z" fill="#dd352e"/><path d="m50.485 25.67c-.254 0-.509-.097-.704-.29-.392-.389-.395-1.021-.007-1.414 2.08-2.1 3.226-4.89 3.226-7.857 0-6.126-4.935-11.109-11-11.109-2.913 0-5.66 1.146-7.733 3.229-.39.389-1.023.392-1.414.003-.391-.392-.393-1.024-.003-1.416 2.451-2.461 5.701-3.816 9.15-3.816 7.168 0 13 5.881 13 13.108 0 3.498-1.351 6.789-3.805 9.266-.195.197-.453.296-.71.296z" fill="#ff8383"/></svg>