<svg enable-background="new 0 0 60 52.999" height="512" viewBox="0 0 60 52.999" width="512" xmlns="http://www.w3.org/2000/svg"><path d="m30.024 52.999c-.909 0-1.763-.355-2.404-1l-22.629-22.782c-3.218-3.233-4.991-7.533-4.991-12.109 0-9.433 7.626-17.108 17-17.108 4.52 0 8.776 1.773 11.985 4.994.551.555 1.479.554 2.03.001 3.209-3.222 7.465-4.995 11.985-4.995 9.374 0 17 7.675 17 17.108 0 4.495-1.713 8.729-4.828 11.942-.035.054-.077.104-.124.151l-22.619 22.796c-.64.646-1.494 1.002-2.403 1.002-.001 0-.001 0-.002 0zm-13.024-50.999c-8.271 0-15 6.777-15 15.108 0 4.043 1.566 7.842 4.41 10.697l22.63 22.783c.263.265.612.41.985.41h.001c.372 0 .722-.146.984-.41l22.489-22.664c.034-.051.073-.099.117-.144 2.827-2.851 4.384-6.642 4.384-10.672 0-8.331-6.729-15.108-15-15.108-3.984 0-7.738 1.564-10.568 4.406-1.307 1.312-3.557 1.313-4.865-.001-2.829-2.841-6.583-4.405-10.567-4.405z"/><path d="m51.485 26.67c-.254 0-.509-.097-.704-.29-.392-.389-.395-1.021-.007-1.414 2.08-2.1 3.226-4.89 3.226-7.857 0-6.126-4.935-11.109-11-11.109-2.913 0-5.66 1.146-7.733 3.229-.39.389-1.023.392-1.414.003-.391-.391-.393-1.023-.003-1.415 2.451-2.462 5.701-3.817 9.15-3.817 7.168 0 13 5.881 13 13.108 0 3.498-1.351 6.789-3.805 9.266-.195.197-.453.296-.71.296z"/></svg>